<svg xmlns="http://www.w3.org/2000/svg" xmlns:xlink="http://www.w3.org/1999/xlink" id="Layer_1" x="0" y="0" fill="#fff" version="1.1" viewBox="0 0 49 50" xml:space="preserve" style="enable-background:new 0 0 49 50"><style type="text/css">.st0{stroke-linecap:round;stroke-linejoin:round}.st0,.st1{fill:none;stroke:#fff;stroke-width:1.584}</style><path id="Stroke-3" d="M8.3,10.5c0-1.8,1.5-3.2,3.4-3.2c1.7,0,3.2,1.4,3.2,3.1c0,1.2-0.6,2.2-1.6,2.8	c-1.1,0.6-1.8,1.7-1.8,2.9v2.1" class="st0"/><path id="Fill-5" d="M15,23.2c0,1.7-1.4,3.1-3.2,3.1c-1.8,0-3.2-1.4-3.2-3.1s1.4-3.1,3.2-3.1C13.6,20.2,15,21.5,15,23.2" class="st1"/><path id="Rectangle" d="M1.7,35.9l8.1-8.1c1.1-1.1,2.9-1.1,4,0l8.1,8.1c1.1,1.1,1.1,2.9,0,4L13.8,48	c-1.1,1.1-2.9,1.1-4,0L1.7,40C0.6,38.9,0.6,37.1,1.7,35.9z" class="st0"/><path id="Rectangle_1_" d="M3.8,41.6l6-6c1.1-1.1,2.9-1.1,4,0l6,6l0,0l-6,6c-1.1,1.1-2.9,1.1-4,0L3.8,41.6L3.8,41.6z" class="st0"/><path id="Stroke-3_1_" d="M33.6,4.2C33.6,2.4,35.2,1,37,1c1.7,0,3.2,1.4,3.2,3.1c0,1.2-0.6,2.2-1.6,2.8	c-1.1,0.6-1.8,1.7-1.8,2.9v2.1" class="st0"/><path id="Fill-5_1_" d="M40.3,16.9c0,1.7-1.4,3.1-3.2,3.1c-1.8,0-3.2-1.4-3.2-3.1s1.4-3.1,3.2-3.1	C38.9,13.8,40.3,15.2,40.3,16.9" class="st1"/><path id="Rectangle_2_" d="M27.1,29.6l8.1-8.1c1.1-1.1,2.9-1.1,4,0l8.1,8.1c1.1,1.1,1.1,2.9,0,4l-8.1,8.1	c-1.1,1.1-2.9,1.1-4,0l-8.1-8.1C26,32.5,26,30.7,27.1,29.6z" class="st0"/><path id="Rectangle_3_" d="M29.1,35.2l6-6c1.1-1.1,2.9-1.1,4,0l6,6l0,0l-6,6c-1.1,1.1-2.9,1.1-4,0L29.1,35.2L29.1,35.2z" class="st0"/></svg>