<svg xmlns="http://www.w3.org/2000/svg" xmlns:xlink="http://www.w3.org/1999/xlink" id="Layer_1" x="0" y="0" fill="#fff" version="1.1" viewBox="0 0 62 38" xml:space="preserve" style="enable-background:new 0 0 62 38"><style type="text/css">.st0{fill:none;stroke:#fff;stroke-width:1.3464;stroke-linecap:round;stroke-linejoin:round}.st1{fill-rule:evenodd;clip-rule:evenodd}</style><path id="Stroke-1" d="M50.8,26.3c0,0,0-21.6-8.5-24.6C34.9-0.9,30,4.9,25.4,5.5" class="st0"/><path id="Stroke-3" d="M11.7,26.3c0,0,0.1-21,8.6-24.1c4-1.5,8.7,1,8.7,1" class="st0"/><path id="Stroke-5" d="M11,22.2c-2.8,0.6-17,3.8-5.8,10.2c10.2,5.8,41.3,5.8,51.5,0c11.1-6.4-3-9.6-5.8-10.2" class="st0"/><path id="Fill-7" d="M11.7,20.3c0,0,5.7,2.8,19.6,2.8c13.8,0,19.6-2.8,19.6-2.8l0.8,6.5c0,0.4-0.2,0.8-0.6,0.9	c-1.8,0.7-7.6,2.5-19.8,2.5c-12.2,0-18-1.8-19.8-2.6c-0.4-0.2-0.6-0.5-0.6-0.9L11.7,20.3z" class="st1"/></svg>